<?xml version="1.0" encoding="UTF-8"?>
<svg width="991px" height="338px" viewBox="0 0 991 338" version="1.1" xmlns="http://www.w3.org/2000/svg" xmlns:xlink="http://www.w3.org/1999/xlink">
    <defs>
        <linearGradient x1="-10.546875%" y1="80.4738031%" x2="100%" y2="80.4738031%" id="linearGradient-1">
            <stop stop-color="#FF4C15" offset="0%"></stop>
            <stop stop-color="#FF005C" offset="100%"></stop>
        </linearGradient>
    </defs>
    <g id="Source" stroke="none" stroke-width="1" fill="none" fill-rule="evenodd">
        <g id="Group" fill-rule="nonzero">
            <path d="M42.8623853,61.6455224 L317.137615,61.6455224 C323.136744,61.6455224 328,66.5007455 328,72.4899668 L328,233.801078 C328,239.790299 323.136744,244.645522 317.137615,244.645522 L42.8623853,244.645522 C36.8632556,244.645522 32,239.790299 32,233.801078 L32,72.4899668 C32,66.5007455 36.8632556,61.6455224 42.8623853,61.6455224 Z M42.8623853,64.3566335 C38.363038,64.3566335 34.7155963,67.9980508 34.7155963,72.4899668 L34.7155963,233.801078 C34.7155963,238.292994 38.363038,241.934411 42.8623853,241.934411 L317.137615,241.934411 C321.636962,241.934411 325.284404,238.292994 325.284404,233.801078 L325.284404,72.4899668 C325.284404,67.9980508 321.636962,64.3566335 317.137615,64.3566335 L42.8623853,64.3566335 Z" id="Rectangle-Copy-33" fill="#FFFFFF"></path>
            <path d="M479.725631,223.189398 C480.514736,218.732268 484.406959,215.347135 489.089654,215.347135 C494.341924,215.347135 498.59973,219.605846 498.59973,224.859232 C498.59973,230.112618 494.341924,234.371329 489.089654,234.371329 C484.209374,234.371329 480.187681,230.694499 479.642491,225.959312 L304.322451,184.979551 L304.322451,228.935845 C304.322451,231.93778 301.889419,234.371329 298.888122,234.371329 L46.1918006,234.371329 C43.1905033,234.371329 40.7574711,231.93778 40.7574711,228.935845 L40.7574711,133.814877 C40.7574711,130.812942 43.1905033,128.379393 46.1918006,128.379393 L240.46908,128.379393 L240.46908,79.4600385 C240.46908,76.4581036 242.902112,74.0245546 245.903409,74.0245546 L305.681034,74.0245546 C308.682331,74.0245546 311.115363,76.4581036 311.115363,79.4600385 L311.115363,105.859322 L479.588897,40.4777052 C479.582705,40.3368377 479.579577,40.1951744 479.579577,40.0527804 C479.579577,34.7993944 483.837384,30.5406836 489.089654,30.5406836 C494.341924,30.5406836 498.59973,34.7993944 498.59973,40.0527804 C498.59973,45.3061664 494.341924,49.5648772 489.089654,49.5648772 C484.936745,49.5648772 481.405563,46.9023822 480.109273,43.1908992 L311.606798,108.583747 C311.445181,108.646468 311.27889,108.676168 311.115363,108.67613 L311.115363,135.173748 C311.115363,138.175683 308.682331,140.609232 305.681034,140.609232 L304.322451,140.609232 L304.322451,182.190204 L479.725631,223.189398 Z M240.46908,131.097135 L46.1918006,131.097135 C44.691152,131.097135 43.4746359,132.31391 43.4746359,133.814877 L43.4746359,228.935845 C43.4746359,230.436812 44.691152,231.653587 46.1918006,231.653587 L298.888122,231.653587 C300.38877,231.653587 301.605287,230.436812 301.605287,228.935845 L301.605287,140.609232 L245.903409,140.609232 C242.902112,140.609232 240.46908,138.175683 240.46908,135.173748 L240.46908,131.097135 Z M304.322451,137.89149 L305.681034,137.89149 C307.181682,137.89149 308.398198,136.674716 308.398198,135.173748 L308.398198,79.4600385 C308.398198,77.9590711 307.181682,76.7422965 305.681034,76.7422965 L245.903409,76.7422965 C244.402761,76.7422965 243.186245,77.9590711 243.186245,79.4600385 L243.186245,128.379393 L298.888122,128.379393 C301.889419,128.379393 304.322451,130.812942 304.322451,133.814877 L304.322451,137.89149 Z M301.605287,137.89149 L301.605287,133.814877 C301.605287,132.31391 300.38877,131.097135 298.888122,131.097135 L243.186245,131.097135 L243.186245,135.173748 C243.186245,136.674716 244.402761,137.89149 245.903409,137.89149 L301.605287,137.89149 Z M0,49.2460866 C0,34.7759667 8.44261902,30.53569 20.9031362,30.5406836 L39.3988888,30.5406836 L39.3988888,36.3415823 L20.9031362,36.3415823 C11.2741413,36.1405663 5.96345429,39.1605674 5.62841268,48.9102222 L5.75004008,65.8713288 L0,65.8713288 L0,49.2460866 Z M521.695631,0.645522352 L607.28632,0.645522352 C613.288915,0.645522352 618.154979,5.51262039 618.154979,11.5164901 L618.154979,56.359232 C618.154979,62.3631017 613.288915,67.2301998 607.28632,67.2301998 L521.695631,67.2301998 C515.693036,67.2301998 510.826972,62.3631017 510.826972,56.359232 L510.826972,11.5164901 C510.826972,5.51262039 515.693036,0.645522352 521.695631,0.645522352 Z M521.695631,3.36326429 C517.193685,3.36326429 513.544136,7.01358782 513.544136,11.5164901 L513.544136,56.359232 C513.544136,60.8621343 517.193685,64.5124578 521.695631,64.5124578 L607.28632,64.5124578 C611.788266,64.5124578 615.437814,60.8621343 615.437814,56.359232 L615.437814,11.5164901 C615.437814,7.01358782 611.788266,3.36326429 607.28632,3.36326429 L521.695631,3.36326429 Z M601.172699,27.8229417 C595.545267,27.8229417 590.983332,23.2600373 590.983332,17.6314094 C590.983332,12.0027816 595.545267,7.43987719 601.172699,7.43987719 C606.800132,7.43987719 611.362067,12.0027816 611.362067,17.6314094 C611.362067,23.2600373 606.800132,27.8229417 601.172699,27.8229417 Z M601.172699,25.1051998 C605.299483,25.1051998 608.644902,21.7590699 608.644902,17.6314094 C608.644902,13.503749 605.299483,10.1576191 601.172699,10.1576191 C597.045916,10.1576191 593.700496,13.503749 593.700496,17.6314094 C593.700496,21.7590699 597.045916,25.1051998 601.172699,25.1051998 Z M579.036191,34.4576324 L565.339546,56.9224519 C565.136419,57.3450537 564.792978,57.8959344 564.29098,58.4519545 C563.342702,59.502279 562.15538,60.1634576 560.731962,60.1634576 C559.445392,60.1634576 558.296269,59.6680857 557.298855,58.8663394 C556.722559,58.4030985 556.310953,57.9382683 556.050363,57.5686878 L545.746612,42.257696 C545.212635,41.3211785 544.250338,40.7550222 543.214131,40.7591009 C543.18627,40.759351 543.18627,40.759351 543.157129,40.760646 C542.70957,40.7844512 542.104989,41.076321 541.467125,41.5683884 C541.017007,41.9156223 540.662171,42.2659664 540.483899,42.4705798 L525.442831,59.9630366 C524.953576,60.5320302 524.095794,60.5965868 523.526921,60.107228 C522.958048,59.6178691 522.893505,58.7599049 523.38276,58.1909113 L538.429534,40.691862 C538.72123,40.3569961 539.196003,39.8882325 539.807691,39.4163587 C540.841871,38.6185623 541.904204,38.1057059 543.01284,38.0467386 C543.112869,38.0422811 543.112869,38.0422811 543.208771,38.0413695 C545.227158,38.0334043 547.091359,39.1301853 548.053661,40.8255028 L558.286919,56.0256745 C558.395771,56.1798069 558.646598,56.4630691 559.000969,56.7479207 C559.554665,57.1929951 560.140905,57.4457156 560.731962,57.4457156 C561.282683,57.4457156 561.796883,57.1593754 562.274373,56.6305017 C562.595391,56.2749383 562.814104,55.9135497 562.905365,55.7135845 L562.981352,55.570375 L576.680574,33.1013304 C577.013489,32.4156618 577.61528,31.4753608 578.508514,30.531722 C580.095851,28.8548131 582.054455,27.8229417 584.374014,27.8229417 C586.52055,27.8229417 588.370599,28.8609796 589.92158,30.5380503 C590.812931,31.5018664 591.424894,32.4595516 591.731918,33.0815371 L605.757714,58.4187499 C606.121164,59.0753121 605.883662,59.9022578 605.22724,60.2657849 C604.570817,60.629312 603.744047,60.3917601 603.380597,59.735198 L589.326362,34.3437635 C589.276391,34.2430354 589.161019,34.0360311 588.984242,33.7593852 C588.683854,33.2892952 588.329177,32.8184803 587.926922,32.3835235 C586.843365,31.2118764 585.647128,30.5406836 584.374014,30.5406836 C582.890064,30.5406836 581.596977,31.2219342 580.481621,32.4002285 C580.074086,32.8307605 579.722131,33.2961367 579.429988,33.760291 C579.258978,34.03199 579.150239,34.2338103 579.105385,34.329078 L579.036191,34.4576324 Z M639.892297,0.645522352 L725.482986,0.645522352 C731.485581,0.645522352 736.351645,5.51262039 736.351645,11.5164901 L736.351645,56.359232 C736.351645,62.3631017 731.485581,67.2301998 725.482986,67.2301998 L639.892297,67.2301998 C633.889702,67.2301998 629.023638,62.3631017 629.023638,56.359232 L629.023638,11.5164901 C629.023638,5.51262039 633.889702,0.645522352 639.892297,0.645522352 Z M639.892297,3.36326429 C635.390351,3.36326429 631.740803,7.01358782 631.740803,11.5164901 L631.740803,56.359232 C631.740803,60.8621343 635.390351,64.5124578 639.892297,64.5124578 L725.482986,64.5124578 C729.984932,64.5124578 733.634481,60.8621343 733.634481,56.359232 L733.634481,11.5164901 C733.634481,7.01358782 729.984932,3.36326429 725.482986,3.36326429 L639.892297,3.36326429 Z M718.010783,27.8229417 C712.383351,27.8229417 707.821416,23.2600373 707.821416,17.6314094 C707.821416,12.0027816 712.383351,7.43987719 718.010783,7.43987719 C723.638216,7.43987719 728.200151,12.0027816 728.200151,17.6314094 C728.200151,23.2600373 723.638216,27.8229417 718.010783,27.8229417 Z M718.010783,25.1051998 C722.137567,25.1051998 725.482986,21.7590699 725.482986,17.6314094 C725.482986,13.503749 722.137567,10.1576191 718.010783,10.1576191 C713.884,10.1576191 710.53858,13.503749 710.53858,17.6314094 C710.53858,21.7590699 713.884,25.1051998 718.010783,25.1051998 Z M698.59144,34.4576324 L684.894795,56.9224519 C684.691668,57.3450537 684.348227,57.8959344 683.846228,58.4519545 C682.89795,59.502279 681.710629,60.1634576 680.28721,60.1634576 C679.000641,60.1634576 677.851518,59.6680857 676.854103,58.8663394 C676.277808,58.4030985 675.866202,57.9382683 675.605612,57.5686878 L665.30186,42.257696 C664.767884,41.3211785 663.805587,40.7550222 662.76938,40.7591009 C662.741519,40.759351 662.741519,40.759351 662.712378,40.760646 C662.264819,40.7844512 661.660238,41.076321 661.022373,41.5683884 C660.572256,41.9156223 660.21742,42.2659664 660.039148,42.4705798 L644.998079,59.9630366 C644.508824,60.5320302 643.651042,60.5965868 643.08217,60.107228 C642.513297,59.6178691 642.448754,58.7599049 642.938009,58.1909113 L657.984783,40.691862 C658.276479,40.3569961 658.751252,39.8882325 659.36294,39.4163587 C660.397119,38.6185623 661.459453,38.1057059 662.568089,38.0467386 C662.668118,38.0422811 662.668118,38.0422811 662.764019,38.0413695 C664.782407,38.0334043 666.646608,39.1301853 667.60891,40.8255028 L677.842168,56.0256745 C677.951019,56.1798069 678.201847,56.4630691 678.556217,56.7479207 C679.109913,57.1929951 679.696154,57.4457156 680.28721,57.4457156 C680.837932,57.4457156 681.352132,57.1593754 681.829622,56.6305017 C682.150639,56.2749383 682.369353,55.9135497 682.460613,55.7135845 L682.536601,55.570375 L696.235822,33.1013304 C696.568737,32.4156618 697.170529,31.4753608 698.063763,30.531722 C699.6511,28.8548131 701.609703,27.8229417 703.929263,27.8229417 C706.075799,27.8229417 707.925848,28.8609796 709.476828,30.5380503 C710.36818,31.5018664 710.980142,32.4595516 711.287166,33.0815371 L725.312963,58.4187499 C725.676412,59.0753121 725.438911,59.9022578 724.782488,60.2657849 C724.126066,60.629312 723.299296,60.3917601 722.935846,59.735198 L708.881611,34.3437635 C708.83164,34.2430354 708.716268,34.0360311 708.539491,33.7593852 C708.239103,33.2892952 707.884425,32.8184803 707.482171,32.3835235 C706.398614,31.2118764 705.202377,30.5406836 703.929263,30.5406836 C702.445313,30.5406836 701.152225,31.2219342 700.03687,32.4002285 C699.629335,32.8307605 699.27738,33.2961367 698.985237,33.760291 C698.814226,34.03199 698.705488,34.2338103 698.660634,34.329078 L698.59144,34.4576324 Z M521.695631,80.8189094 L607.28632,80.8189094 C613.288915,80.8189094 618.154979,85.6860075 618.154979,91.6898772 L618.154979,136.532619 C618.154979,142.536489 613.288915,147.403587 607.28632,147.403587 L521.695631,147.403587 C515.693036,147.403587 510.826972,142.536489 510.826972,136.532619 L510.826972,91.6898772 C510.826972,85.6860075 515.693036,80.8189094 521.695631,80.8189094 Z M521.695631,83.5366514 C517.193685,83.5366514 513.544136,87.1869749 513.544136,91.6898772 L513.544136,136.532619 C513.544136,141.035521 517.193685,144.685845 521.695631,144.685845 L607.28632,144.685845 C611.788266,144.685845 615.437814,141.035521 615.437814,136.532619 L615.437814,91.6898772 C615.437814,87.1869749 611.788266,83.5366514 607.28632,83.5366514 L521.695631,83.5366514 Z M601.172699,109.3552 C595.545267,109.3552 590.983332,104.792295 590.983332,99.1636675 C590.983332,93.5350397 595.545267,88.9721353 601.172699,88.9721353 C606.800132,88.9721353 611.362067,93.5350397 611.362067,99.1636675 C611.362067,104.792295 606.800132,109.3552 601.172699,109.3552 Z M601.172699,106.637458 C605.299483,106.637458 608.644902,103.291328 608.644902,99.1636675 C608.644902,95.0360071 605.299483,91.6898772 601.172699,91.6898772 C597.045916,91.6898772 593.700496,95.0360071 593.700496,99.1636675 C593.700496,103.291328 597.045916,106.637458 601.172699,106.637458 Z M579.036191,115.98989 L565.339546,138.45471 C565.136419,138.877312 564.792978,139.428192 564.29098,139.984213 C563.342702,141.034537 562.15538,141.695716 560.731962,141.695716 C559.445392,141.695716 558.296269,141.200344 557.298855,140.398597 C556.722559,139.935357 556.310953,139.470526 556.050363,139.100946 L545.746612,123.789954 C545.212635,122.853437 544.250338,122.28728 543.214131,122.291359 C543.18627,122.291609 543.18627,122.291609 543.157129,122.292904 C542.70957,122.316709 542.104989,122.608579 541.467125,123.100646 C541.017007,123.44788 540.662171,123.798224 540.483899,124.002838 L525.442831,141.495295 C524.953576,142.064288 524.095794,142.128845 523.526921,141.639486 C522.958048,141.150127 522.893505,140.292163 523.38276,139.723169 L538.429534,122.22412 C538.72123,121.889254 539.196003,121.420491 539.807691,120.948617 C540.841871,120.15082 541.904204,119.637964 543.01284,119.578997 C543.112869,119.574539 543.112869,119.574539 543.208771,119.573628 C545.227158,119.565662 547.091359,120.662443 548.053661,122.357761 L558.286919,137.557933 C558.395771,137.712065 558.646598,137.995327 559.000969,138.280179 C559.554665,138.725253 560.140905,138.977974 560.731962,138.977974 C561.282683,138.977974 561.796883,138.691633 562.274373,138.16276 C562.595391,137.807196 562.814104,137.445808 562.905365,137.245843 L562.981352,137.102633 L576.680574,114.633588 C577.013489,113.94792 577.61528,113.007619 578.508514,112.06398 C580.095851,110.387071 582.054455,109.3552 584.374014,109.3552 C586.52055,109.3552 588.370599,110.393238 589.92158,112.070308 C590.812931,113.034124 591.424894,113.99181 591.731918,114.613795 L605.757714,139.951008 C606.121164,140.60757 605.883662,141.434516 605.22724,141.798043 C604.570817,142.16157 603.744047,141.924018 603.380597,141.267456 L589.326362,115.876022 C589.276391,115.775293 589.161019,115.568289 588.984242,115.291643 C588.683854,114.821553 588.329177,114.350738 587.926922,113.915782 C586.843365,112.744134 585.647128,112.072942 584.374014,112.072942 C582.890064,112.072942 581.596977,112.754192 580.481621,113.932487 C580.074086,114.363019 579.722131,114.828395 579.429988,115.292549 C579.258978,115.564248 579.150239,115.766068 579.105385,115.861336 L579.036191,115.98989 Z M639.892297,80.8189094 L725.482986,80.8189094 C731.485581,80.8189094 736.351645,85.6860075 736.351645,91.6898772 L736.351645,136.532619 C736.351645,142.536489 731.485581,147.403587 725.482986,147.403587 L639.892297,147.403587 C633.889702,147.403587 629.023638,142.536489 629.023638,136.532619 L629.023638,91.6898772 C629.023638,85.6860075 633.889702,80.8189094 639.892297,80.8189094 Z M639.892297,83.5366514 C635.390351,83.5366514 631.740803,87.1869749 631.740803,91.6898772 L631.740803,136.532619 C631.740803,141.035521 635.390351,144.685845 639.892297,144.685845 L725.482986,144.685845 C729.984932,144.685845 733.634481,141.035521 733.634481,136.532619 L733.634481,91.6898772 C733.634481,87.1869749 729.984932,83.5366514 725.482986,83.5366514 L639.892297,83.5366514 Z M718.010783,109.3552 C712.383351,109.3552 707.821416,104.792295 707.821416,99.1636675 C707.821416,93.5350397 712.383351,88.9721353 718.010783,88.9721353 C723.638216,88.9721353 728.200151,93.5350397 728.200151,99.1636675 C728.200151,104.792295 723.638216,109.3552 718.010783,109.3552 Z M718.010783,106.637458 C722.137567,106.637458 725.482986,103.291328 725.482986,99.1636675 C725.482986,95.0360071 722.137567,91.6898772 718.010783,91.6898772 C713.884,91.6898772 710.53858,95.0360071 710.53858,99.1636675 C710.53858,103.291328 713.884,106.637458 718.010783,106.637458 Z M698.59144,115.98989 L684.894795,138.45471 C684.691668,138.877312 684.348227,139.428192 683.846228,139.984213 C682.89795,141.034537 681.710629,141.695716 680.28721,141.695716 C679.000641,141.695716 677.851518,141.200344 676.854103,140.398597 C676.277808,139.935357 675.866202,139.470526 675.605612,139.100946 L665.30186,123.789954 C664.767884,122.853437 663.805587,122.28728 662.76938,122.291359 C662.741519,122.291609 662.741519,122.291609 662.712378,122.292904 C662.264819,122.316709 661.660238,122.608579 661.022373,123.100646 C660.572256,123.44788 660.21742,123.798224 660.039148,124.002838 L644.998079,141.495295 C644.508824,142.064288 643.651042,142.128845 643.08217,141.639486 C642.513297,141.150127 642.448754,140.292163 642.938009,139.723169 L657.984783,122.22412 C658.276479,121.889254 658.751252,121.420491 659.36294,120.948617 C660.397119,120.15082 661.459453,119.637964 662.568089,119.578997 C662.668118,119.574539 662.668118,119.574539 662.764019,119.573628 C664.782407,119.565662 666.646608,120.662443 667.60891,122.357761 L677.842168,137.557933 C677.951019,137.712065 678.201847,137.995327 678.556217,138.280179 C679.109913,138.725253 679.696154,138.977974 680.28721,138.977974 C680.837932,138.977974 681.352132,138.691633 681.829622,138.16276 C682.150639,137.807196 682.369353,137.445808 682.460613,137.245843 L682.536601,137.102633 L696.235822,114.633588 C696.568737,113.94792 697.170529,113.007619 698.063763,112.06398 C699.6511,110.387071 701.609703,109.3552 703.929263,109.3552 C706.075799,109.3552 707.925848,110.393238 709.476828,112.070308 C710.36818,113.034124 710.980142,113.99181 711.287166,114.613795 L725.312963,139.951008 C725.676412,140.60757 725.438911,141.434516 724.782488,141.798043 C724.126066,142.16157 723.299296,141.924018 722.935846,141.267456 L708.881611,115.876022 C708.83164,115.775293 708.716268,115.568289 708.539491,115.291643 C708.239103,114.821553 707.884425,114.350738 707.482171,113.915782 C706.398614,112.744134 705.202377,112.072942 703.929263,112.072942 C702.445313,112.072942 701.152225,112.754192 700.03687,113.932487 C699.629335,114.363019 699.27738,114.828395 698.985237,115.292549 C698.814226,115.564248 698.705488,115.766068 698.660634,115.861336 L698.59144,115.98989 Z M521.695631,190.887458 L607.28632,190.887458 C613.288915,190.887458 618.154979,195.754556 618.154979,201.758426 L618.154979,246.601168 C618.154979,252.605037 613.288915,257.472135 607.28632,257.472135 L521.695631,257.472135 C515.693036,257.472135 510.826972,252.605037 510.826972,246.601168 L510.826972,201.758426 C510.826972,195.754556 515.693036,190.887458 521.695631,190.887458 Z M521.695631,193.6052 C517.193685,193.6052 513.544136,197.255523 513.544136,201.758426 L513.544136,246.601168 C513.544136,251.10407 517.193685,254.754393 521.695631,254.754393 L607.28632,254.754393 C611.788266,254.754393 615.437814,251.10407 615.437814,246.601168 L615.437814,201.758426 C615.437814,197.255523 611.788266,193.6052 607.28632,193.6052 L521.695631,193.6052 Z M601.172699,218.064877 C595.545267,218.064877 590.983332,213.501973 590.983332,207.873345 C590.983332,202.244717 595.545267,197.681813 601.172699,197.681813 C606.800132,197.681813 611.362067,202.244717 611.362067,207.873345 C611.362067,213.501973 606.800132,218.064877 601.172699,218.064877 Z M601.172699,215.347135 C605.299483,215.347135 608.644902,212.001005 608.644902,207.873345 C608.644902,203.745685 605.299483,200.399555 601.172699,200.399555 C597.045916,200.399555 593.700496,203.745685 593.700496,207.873345 C593.700496,212.001005 597.045916,215.347135 601.172699,215.347135 Z M579.036191,224.699568 L565.339546,247.164387 C565.136419,247.586989 564.792978,248.13787 564.29098,248.69389 C563.342702,249.744214 562.15538,250.405393 560.731962,250.405393 C559.445392,250.405393 558.296269,249.910021 557.298855,249.108275 C556.722559,248.645034 556.310953,248.180204 556.050363,247.810623 L545.746612,232.499631 C545.212635,231.563114 544.250338,230.996958 543.214131,231.001036 C543.18627,231.001286 543.18627,231.001286 543.157129,231.002581 C542.70957,231.026387 542.104989,231.318256 541.467125,231.810324 C541.017007,232.157558 540.662171,232.507902 540.483899,232.712515 L525.442831,250.204972 C524.953576,250.773966 524.095794,250.838522 523.526921,250.349163 C522.958048,249.859805 522.893505,249.00184 523.38276,248.432847 L538.429534,230.933797 C538.72123,230.598932 539.196003,230.130168 539.807691,229.658294 C540.841871,228.860498 541.904204,228.347641 543.01284,228.288674 C543.112869,228.284217 543.112869,228.284217 543.208771,228.283305 C545.227158,228.27534 547.091359,229.372121 548.053661,231.067438 L558.286919,246.26761 C558.395771,246.421742 558.646598,246.705005 559.000969,246.989856 C559.554665,247.434931 560.140905,247.687651 560.731962,247.687651 C561.282683,247.687651 561.796883,247.401311 562.274373,246.872437 C562.595391,246.516874 562.814104,246.155485 562.905365,245.95552 L562.981352,245.812311 L576.680574,223.343266 C577.013489,222.657597 577.61528,221.717296 578.508514,220.773657 C580.095851,219.096749 582.054455,218.064877 584.374014,218.064877 C586.52055,218.064877 588.370599,219.102915 589.92158,220.779986 C590.812931,221.743802 591.424894,222.701487 591.731918,223.323473 L605.757714,248.660685 C606.121164,249.317248 605.883662,250.144193 605.22724,250.50772 C604.570817,250.871247 603.744047,250.633696 603.380597,249.977133 L589.326362,224.585699 C589.276391,224.484971 589.161019,224.277967 588.984242,224.001321 C588.683854,223.531231 588.329177,223.060416 587.926922,222.625459 C586.843365,221.453812 585.647128,220.782619 584.374014,220.782619 C582.890064,220.782619 581.596977,221.46387 580.481621,222.642164 C580.074086,223.072696 579.722131,223.538072 579.429988,224.002226 C579.258978,224.273925 579.150239,224.475746 579.105385,224.571014 L579.036191,224.699568 Z M639.892297,190.887458 L725.482986,190.887458 C731.485581,190.887458 736.351645,195.754556 736.351645,201.758426 L736.351645,246.601168 C736.351645,252.605037 731.485581,257.472135 725.482986,257.472135 L639.892297,257.472135 C633.889702,257.472135 629.023638,252.605037 629.023638,246.601168 L629.023638,201.758426 C629.023638,195.754556 633.889702,190.887458 639.892297,190.887458 Z M639.892297,193.6052 C635.390351,193.6052 631.740803,197.255523 631.740803,201.758426 L631.740803,246.601168 C631.740803,251.10407 635.390351,254.754393 639.892297,254.754393 L725.482986,254.754393 C729.984932,254.754393 733.634481,251.10407 733.634481,246.601168 L733.634481,201.758426 C733.634481,197.255523 729.984932,193.6052 725.482986,193.6052 L639.892297,193.6052 Z M718.010783,218.064877 C712.383351,218.064877 707.821416,213.501973 707.821416,207.873345 C707.821416,202.244717 712.383351,197.681813 718.010783,197.681813 C723.638216,197.681813 728.200151,202.244717 728.200151,207.873345 C728.200151,213.501973 723.638216,218.064877 718.010783,218.064877 Z M718.010783,215.347135 C722.137567,215.347135 725.482986,212.001005 725.482986,207.873345 C725.482986,203.745685 722.137567,200.399555 718.010783,200.399555 C713.884,200.399555 710.53858,203.745685 710.53858,207.873345 C710.53858,212.001005 713.884,215.347135 718.010783,215.347135 Z M698.59144,224.699568 L684.894795,247.164387 C684.691668,247.586989 684.348227,248.13787 683.846228,248.69389 C682.89795,249.744214 681.710629,250.405393 680.28721,250.405393 C679.000641,250.405393 677.851518,249.910021 676.854103,249.108275 C676.277808,248.645034 675.866202,248.180204 675.605612,247.810623 L665.30186,232.499631 C664.767884,231.563114 663.805587,230.996958 662.76938,231.001036 C662.741519,231.001286 662.741519,231.001286 662.712378,231.002581 C662.264819,231.026387 661.660238,231.318256 661.022373,231.810324 C660.572256,232.157558 660.21742,232.507902 660.039148,232.712515 L644.998079,250.204972 C644.508824,250.773966 643.651042,250.838522 643.08217,250.349163 C642.513297,249.859805 642.448754,249.00184 642.938009,248.432847 L657.984783,230.933797 C658.276479,230.598932 658.751252,230.130168 659.36294,229.658294 C660.397119,228.860498 661.459453,228.347641 662.568089,228.288674 C662.668118,228.284217 662.668118,228.284217 662.764019,228.283305 C664.782407,228.27534 666.646608,229.372121 667.60891,231.067438 L677.842168,246.26761 C677.951019,246.421742 678.201847,246.705005 678.556217,246.989856 C679.109913,247.434931 679.696154,247.687651 680.28721,247.687651 C680.837932,247.687651 681.352132,247.401311 681.829622,246.872437 C682.150639,246.516874 682.369353,246.155485 682.460613,245.95552 L682.536601,245.812311 L696.235822,223.343266 C696.568737,222.657597 697.170529,221.717296 698.063763,220.773657 C699.6511,219.096749 701.609703,218.064877 703.929263,218.064877 C706.075799,218.064877 707.925848,219.102915 709.476828,220.779986 C710.36818,221.743802 710.980142,222.701487 711.287166,223.323473 L725.312963,248.660685 C725.676412,249.317248 725.438911,250.144193 724.782488,250.50772 C724.126066,250.871247 723.299296,250.633696 722.935846,249.977133 L708.881611,224.585699 C708.83164,224.484971 708.716268,224.277967 708.539491,224.001321 C708.239103,223.531231 707.884425,223.060416 707.482171,222.625459 C706.398614,221.453812 705.202377,220.782619 703.929263,220.782619 C702.445313,220.782619 701.152225,221.46387 700.03687,222.642164 C699.629335,223.072696 699.27738,223.538072 698.985237,224.002226 C698.814226,224.273925 698.705488,224.475746 698.660634,224.571014 L698.59144,224.699568 Z M521.695631,271.060845 L607.28632,271.060845 C613.288915,271.060845 618.154979,275.927943 618.154979,281.931813 L618.154979,326.774555 C618.154979,332.778424 613.288915,337.645522 607.28632,337.645522 L521.695631,337.645522 C515.693036,337.645522 510.826972,332.778424 510.826972,326.774555 L510.826972,281.931813 C510.826972,275.927943 515.693036,271.060845 521.695631,271.060845 Z M521.695631,273.778587 C517.193685,273.778587 513.544136,277.42891 513.544136,281.931813 L513.544136,326.774555 C513.544136,331.277457 517.193685,334.92778 521.695631,334.92778 L607.28632,334.92778 C611.788266,334.92778 615.437814,331.277457 615.437814,326.774555 L615.437814,281.931813 C615.437814,277.42891 611.788266,273.778587 607.28632,273.778587 L521.695631,273.778587 Z M601.172699,299.597135 C595.545267,299.597135 590.983332,295.034231 590.983332,289.405603 C590.983332,283.776975 595.545267,279.214071 601.172699,279.214071 C606.800132,279.214071 611.362067,283.776975 611.362067,289.405603 C611.362067,295.034231 606.800132,299.597135 601.172699,299.597135 Z M601.172699,296.879393 C605.299483,296.879393 608.644902,293.533263 608.644902,289.405603 C608.644902,285.277943 605.299483,281.931813 601.172699,281.931813 C597.045916,281.931813 593.700496,285.277943 593.700496,289.405603 C593.700496,293.533263 597.045916,296.879393 601.172699,296.879393 Z M579.036191,306.231826 L565.339546,328.696645 C565.136419,329.119247 564.792978,329.670128 564.29098,330.226148 C563.342702,331.276473 562.15538,331.937651 560.731962,331.937651 C559.445392,331.937651 558.296269,331.442279 557.298855,330.640533 C556.722559,330.177292 556.310953,329.712462 556.050363,329.342881 L545.746612,314.03189 C545.212635,313.095372 544.250338,312.529216 543.214131,312.533294 C543.18627,312.533545 543.18627,312.533545 543.157129,312.53484 C542.70957,312.558645 542.104989,312.850515 541.467125,313.342582 C541.017007,313.689816 540.662171,314.04016 540.483899,314.244773 L525.442831,331.73723 C524.953576,332.306224 524.095794,332.37078 523.526921,331.881422 C522.958048,331.392063 522.893505,330.534098 523.38276,329.965105 L538.429534,312.466056 C538.72123,312.13119 539.196003,311.662426 539.807691,311.190552 C540.841871,310.392756 541.904204,309.879899 543.01284,309.820932 C543.112869,309.816475 543.112869,309.816475 543.208771,309.815563 C545.227158,309.807598 547.091359,310.904379 548.053661,312.599696 L558.286919,327.799868 C558.395771,327.954 558.646598,328.237263 559.000969,328.522114 C559.554665,328.967189 560.140905,329.219909 560.731962,329.219909 C561.282683,329.219909 561.796883,328.933569 562.274373,328.404695 C562.595391,328.049132 562.814104,327.687743 562.905365,327.487778 L562.981352,327.344569 L576.680574,304.875524 C577.013489,304.189855 577.61528,303.249554 578.508514,302.305916 C580.095851,300.629007 582.054455,299.597135 584.374014,299.597135 C586.52055,299.597135 588.370599,300.635173 589.92158,302.312244 C590.812931,303.27606 591.424894,304.233745 591.731918,304.855731 L605.757714,330.192943 C606.121164,330.849506 605.883662,331.676451 605.22724,332.039978 C604.570817,332.403506 603.744047,332.165954 603.380597,331.509392 L589.326362,306.117957 C589.276391,306.017229 589.161019,305.810225 588.984242,305.533579 C588.683854,305.063489 588.329177,304.592674 587.926922,304.157717 C586.843365,302.98607 585.647128,302.314877 584.374014,302.314877 C582.890064,302.314877 581.596977,302.996128 580.481621,304.174422 C580.074086,304.604954 579.722131,305.07033 579.429988,305.534485 C579.258978,305.806184 579.150239,306.008004 579.105385,306.103272 L579.036191,306.231826 Z M639.892297,271.060845 L725.482986,271.060845 C731.485581,271.060845 736.351645,275.927943 736.351645,281.931813 L736.351645,326.774555 C736.351645,332.778424 731.485581,337.645522 725.482986,337.645522 L639.892297,337.645522 C633.889702,337.645522 629.023638,332.778424 629.023638,326.774555 L629.023638,281.931813 C629.023638,275.927943 633.889702,271.060845 639.892297,271.060845 Z M639.892297,273.778587 C635.390351,273.778587 631.740803,277.42891 631.740803,281.931813 L631.740803,326.774555 C631.740803,331.277457 635.390351,334.92778 639.892297,334.92778 L725.482986,334.92778 C729.984932,334.92778 733.634481,331.277457 733.634481,326.774555 L733.634481,281.931813 C733.634481,277.42891 729.984932,273.778587 725.482986,273.778587 L639.892297,273.778587 Z M718.010783,299.597135 C712.383351,299.597135 707.821416,295.034231 707.821416,289.405603 C707.821416,283.776975 712.383351,279.214071 718.010783,279.214071 C723.638216,279.214071 728.200151,283.776975 728.200151,289.405603 C728.200151,295.034231 723.638216,299.597135 718.010783,299.597135 Z M718.010783,296.879393 C722.137567,296.879393 725.482986,293.533263 725.482986,289.405603 C725.482986,285.277943 722.137567,281.931813 718.010783,281.931813 C713.884,281.931813 710.53858,285.277943 710.53858,289.405603 C710.53858,293.533263 713.884,296.879393 718.010783,296.879393 Z M698.59144,306.231826 L684.894795,328.696645 C684.691668,329.119247 684.348227,329.670128 683.846228,330.226148 C682.89795,331.276473 681.710629,331.937651 680.28721,331.937651 C679.000641,331.937651 677.851518,331.442279 676.854103,330.640533 C676.277808,330.177292 675.866202,329.712462 675.605612,329.342881 L665.30186,314.03189 C664.767884,313.095372 663.805587,312.529216 662.76938,312.533294 C662.741519,312.533545 662.741519,312.533545 662.712378,312.53484 C662.264819,312.558645 661.660238,312.850515 661.022373,313.342582 C660.572256,313.689816 660.21742,314.04016 660.039148,314.244773 L644.998079,331.73723 C644.508824,332.306224 643.651042,332.37078 643.08217,331.881422 C642.513297,331.392063 642.448754,330.534098 642.938009,329.965105 L657.984783,312.466056 C658.276479,312.13119 658.751252,311.662426 659.36294,311.190552 C660.397119,310.392756 661.459453,309.879899 662.568089,309.820932 C662.668118,309.816475 662.668118,309.816475 662.764019,309.815563 C664.782407,309.807598 666.646608,310.904379 667.60891,312.599696 L677.842168,327.799868 C677.951019,327.954 678.201847,328.237263 678.556217,328.522114 C679.109913,328.967189 679.696154,329.219909 680.28721,329.219909 C680.837932,329.219909 681.352132,328.933569 681.829622,328.404695 C682.150639,328.049132 682.369353,327.687743 682.460613,327.487778 L682.536601,327.344569 L696.235822,304.875524 C696.568737,304.189855 697.170529,303.249554 698.063763,302.305916 C699.6511,300.629007 701.609703,299.597135 703.929263,299.597135 C706.075799,299.597135 707.925848,300.635173 709.476828,302.312244 C710.36818,303.27606 710.980142,304.233745 711.287166,304.855731 L725.312963,330.192943 C725.676412,330.849506 725.438911,331.676451 724.782488,332.039978 C724.126066,332.403506 723.299296,332.165954 722.935846,331.509392 L708.881611,306.117957 C708.83164,306.017229 708.716268,305.810225 708.539491,305.533579 C708.239103,305.063489 707.884425,304.592674 707.482171,304.157717 C706.398614,302.98607 705.202377,302.314877 703.929263,302.314877 C702.445313,302.314877 701.152225,302.996128 700.03687,304.174422 C699.629335,304.604954 699.27738,305.07033 698.985237,305.534485 C698.814226,305.806184 698.705488,306.008004 698.660634,306.103272 L698.59144,306.231826 Z M357.307164,49.2460866 L357.307164,65.8713288 L351.557124,65.8713288 L351.678751,48.9102222 C351.343709,39.1605674 346.033022,36.1405663 336.404028,36.3415823 L317.908275,36.3415823 L317.908275,30.5406836 L336.404028,30.5406836 C348.864545,30.53569 357.307164,34.7759667 357.307164,49.2460866 Z M0,250.996567 L0,234.371329 L5.75004008,234.371329 L5.62841268,251.332431 C5.96345429,261.082084 11.2741413,264.102084 20.9031362,263.901068 L39.3988888,263.901068 L39.3988888,269.701974 L20.9031362,269.701974 C8.44261902,269.706959 0,265.466683 0,250.996567 Z M357.307164,250.996571 C357.307164,265.466691 348.864545,269.706968 336.404028,269.701974 L317.908275,269.701974 L317.908275,263.901075 L336.404028,263.901075 C346.033022,264.102091 351.343709,261.08209 351.678751,251.332435 L351.557124,234.371329 L357.307164,234.371329 L357.307164,250.996571 Z M489.089654,46.8471353 C492.841275,46.8471353 495.882566,43.805199 495.882566,40.0527804 C495.882566,36.3003619 492.841275,33.2584256 489.089654,33.2584256 C485.338032,33.2584256 482.296742,36.3003619 482.296742,40.0527804 C482.296742,43.805199 485.338032,46.8471353 489.089654,46.8471353 Z M489.089654,231.653587 C492.841275,231.653587 495.882566,228.611651 495.882566,224.859232 C495.882566,221.106813 492.841275,218.064877 489.089654,218.064877 C485.338032,218.064877 482.296742,221.106813 482.296742,224.859232 C482.296742,228.611651 485.338032,231.653587 489.089654,231.653587 Z M766.240458,15.593103 C763.989485,15.593103 762.16471,13.7679412 762.16471,11.5164901 C762.16471,9.26503896 763.989485,7.43987719 766.240458,7.43987719 C768.491431,7.43987719 770.316205,9.26503896 770.316205,11.5164901 C770.316205,13.7679412 768.491431,15.593103 766.240458,15.593103 Z M766.240458,42.7705224 C763.989485,42.7705224 762.16471,40.9453606 762.16471,38.6939094 C762.16471,36.4424583 763.989485,34.6172965 766.240458,34.6172965 C768.491431,34.6172965 770.316205,36.4424583 770.316205,38.6939094 C770.316205,40.9453606 768.491431,42.7705224 766.240458,42.7705224 Z M766.240458,69.9479417 C763.989485,69.9479417 762.16471,68.1227799 762.16471,65.8713288 C762.16471,63.6198777 763.989485,61.7947159 766.240458,61.7947159 C768.491431,61.7947159 770.316205,63.6198777 770.316205,65.8713288 C770.316205,68.1227799 768.491431,69.9479417 766.240458,69.9479417 Z M766.240458,264.26649 C763.989485,264.26649 762.16471,262.441328 762.16471,260.189877 C762.16471,257.938426 763.989485,256.113264 766.240458,256.113264 C768.491431,256.113264 770.316205,257.938426 770.316205,260.189877 C770.316205,262.441328 768.491431,264.26649 766.240458,264.26649 Z M766.240458,97.1253611 C763.989485,97.1253611 762.16471,95.3001993 762.16471,93.0487482 C762.16471,90.797297 763.989485,88.9721353 766.240458,88.9721353 C768.491431,88.9721353 770.316205,90.797297 770.316205,93.0487482 C770.316205,95.3001993 768.491431,97.1253611 766.240458,97.1253611 Z M776.197734,12.8753611 C775.44741,12.8753611 774.839152,12.2669738 774.839152,11.5164901 C774.839152,10.7660064 775.44741,10.1576191 776.197734,10.1576191 L989.641418,10.1576191 C990.391742,10.1576191 991,10.7660064 991,11.5164901 C991,12.2669738 990.391742,12.8753611 989.641418,12.8753611 L776.197734,12.8753611 Z M776.196575,40.0527804 C775.44625,40.0527804 774.837992,39.4443932 774.837992,38.6939094 C774.837992,37.9434257 775.44625,37.3350385 776.196575,37.3350385 L923.517163,37.3350385 C924.267488,37.3350385 924.875746,37.9434257 924.875746,38.6939094 C924.875746,39.4443932 924.267488,40.0527804 923.517163,40.0527804 L776.196575,40.0527804 Z M776.196832,67.2301998 C775.446507,67.2301998 774.838249,66.6218125 774.838249,65.8713288 C774.838249,65.1208451 775.446507,64.5124578 776.196832,64.5124578 L959.675699,64.5124578 C960.426023,64.5124578 961.034281,65.1208451 961.034281,65.8713288 C961.034281,66.6218125 960.426023,67.2301998 959.675699,67.2301998 L776.196832,67.2301998 Z M776.198577,94.4076191 C775.448253,94.4076191 774.839995,93.7992319 774.839995,93.0487482 C774.839995,92.2982644 775.448253,91.6898772 776.198577,91.6898772 L943.50068,91.6898772 C944.251004,91.6898772 944.859262,92.2982644 944.859262,93.0487482 C944.859262,93.7992319 944.251004,94.4076191 943.50068,94.4076191 L776.198577,94.4076191 Z M766.240458,208.55278 C763.989485,208.55278 762.16471,206.727619 762.16471,204.476168 C762.16471,202.224716 763.989485,200.399555 766.240458,200.399555 C768.491431,200.399555 770.316205,202.224716 770.316205,204.476168 C770.316205,206.727619 768.491431,208.55278 766.240458,208.55278 Z M766.240458,235.7302 C763.989485,235.7302 762.16471,233.905038 762.16471,231.653587 C762.16471,229.402136 763.989485,227.576974 766.240458,227.576974 C768.491431,227.576974 770.316205,229.402136 770.316205,231.653587 C770.316205,233.905038 768.491431,235.7302 766.240458,235.7302 Z M766.240458,290.085038 C763.989485,290.085038 762.16471,288.259877 762.16471,286.008426 C762.16471,283.756974 763.989485,281.931813 766.240458,281.931813 C768.491431,281.931813 770.316205,283.756974 770.316205,286.008426 C770.316205,288.259877 768.491431,290.085038 766.240458,290.085038 Z M776.197734,205.835038 C775.44741,205.835038 774.839152,205.226651 774.839152,204.476168 C774.839152,203.725684 775.44741,203.117297 776.197734,203.117297 L989.641418,203.117297 C990.391742,203.117297 991,203.725684 991,204.476168 C991,205.226651 990.391742,205.835038 989.641418,205.835038 L776.197734,205.835038 Z M776.196575,233.012458 C775.44625,233.012458 774.837992,232.404071 774.837992,231.653587 C774.837992,230.903103 775.44625,230.294716 776.196575,230.294716 L923.517163,230.294716 C924.267488,230.294716 924.875746,230.903103 924.875746,231.653587 C924.875746,232.404071 924.267488,233.012458 923.517163,233.012458 L776.196575,233.012458 Z M776.196832,260.189877 C775.446507,260.189877 774.838249,259.58149 774.838249,258.831006 C774.838249,258.080523 775.446507,257.472135 776.196832,257.472135 L959.675699,257.472135 C960.426023,257.472135 961.034281,258.080523 961.034281,258.831006 C961.034281,259.58149 960.426023,260.189877 959.675699,260.189877 L776.196832,260.189877 Z M776.198577,287.367297 C775.448253,287.367297 774.839995,286.758909 774.839995,286.008426 C774.839995,285.257942 775.448253,284.649555 776.198577,284.649555 L943.50068,284.649555 C944.251004,284.649555 944.859262,285.257942 944.859262,286.008426 C944.859262,286.758909 944.251004,287.367297 943.50068,287.367297 L776.198577,287.367297 Z" id="Combined-Shape" fill="url(#linearGradient-1)"></path>
            <path d="M276,135.645522 C290.911688,135.645522 303,123.557211 303,108.645522 C303,93.7338341 290.911688,81.6455224 276,81.6455224 C261.088312,81.6455224 249,93.7338341 249,108.645522 C249,123.557211 261.088312,135.645522 276,135.645522 Z M276,132.945522 C262.579481,132.945522 251.7,122.066042 251.7,108.645522 C251.7,95.2250029 262.579481,84.3455224 276,84.3455224 C289.420519,84.3455224 300.3,95.2250029 300.3,108.645522 C300.3,122.066042 289.420519,132.945522 276,132.945522 Z" id="Oval-Copy-76" fill="#FFFFFF"></path>
            <g id="Asset-2-Copy-19" transform="translate(52.000000, 139.645522)" fill="#FFFFFF">
                <path d="M162.774324,15.2544598 L162.846295,15.1256673 C162.886034,15.0443836 162.975389,14.873152 163.114248,14.6249584 C163.351763,14.2004268 163.638692,13.724519 163.974821,13.2102282 C164.938768,11.7353507 166.09812,10.2590695 167.449138,8.88458996 C171.264446,5.00302622 175.80966,2.6969697 181.103434,2.6969697 C185.803405,2.6969697 190.045947,4.98938186 193.761396,8.85833142 C195.083407,10.23496 196.240625,11.7143009 197.221645,13.1927713 C197.564088,13.7088582 197.859334,14.1866982 198.106233,14.6133124 C198.251094,14.8636148 198.345629,15.037131 198.388784,15.1209033 L240.463557,88.3201596 C240.835319,88.9669051 241.664504,89.1918336 242.315593,88.8225514 C242.966683,88.4532693 243.193122,87.6296162 242.82136,86.9828707 L200.776196,13.837982 C200.743049,13.7705261 200.627559,13.5585498 200.460079,13.2691628 C200.186411,12.7962947 199.862372,12.2718544 199.488606,11.7085625 C198.423318,10.1030933 197.168117,8.49849486 195.725983,6.99677992 C191.543874,2.64189095 186.654555,0 181.103434,0 C174.995417,0 169.793029,2.63948007 165.506471,7.0004773 C164.021836,8.51089413 162.753798,10.1255732 161.697562,11.7416561 C161.09014,12.671036 160.670997,13.4126267 160.438129,13.8784494 L119.302504,78.853026 L119.223433,78.9965669 C119.137064,79.1788161 118.946579,79.5314788 118.654306,79.9965564 C118.160571,80.7822077 117.568931,81.5688915 116.884411,82.2990388 C114.982687,84.3275243 112.765236,85.5166872 110.231596,85.5166872 C107.755616,85.5166872 105.431031,84.5516436 103.325844,82.9220144 C102.576051,82.3415988 101.909976,81.7181814 101.338412,81.0965773 C101.001647,80.7303283 100.776727,80.4537141 100.672927,80.3121696 L69.962775,36.3841366 C67.4507201,32.1337226 62.7668237,29.4799045 57.7131572,29.4991106 C57.5666347,29.4991007 57.4142741,29.5030496 57.2612989,29.5108854 C54.607003,29.6468444 51.8830205,30.9132586 49.1810432,32.9205683 C48.2054702,33.6453255 47.3003351,34.4193068 46.4856807,35.1939071 C45.9933308,35.6620496 45.6363163,36.0310162 45.4363809,36.2520541 L0.341909731,86.7567412 C-0.15557938,87.3139171 -0.104159977,88.1662013 0.456758181,88.6603714 C1.01767634,89.1545414 1.87568496,89.1034651 2.37317407,88.5462892 L47.4618214,38.0480825 C47.6125442,37.8814932 47.9228769,37.5607713 48.3631223,37.1421715 C49.1027933,36.4388679 49.9259977,35.7349455 50.807161,35.0803257 C53.1174748,33.3639844 55.3904057,32.3072698 57.4011199,32.2042765 C57.507818,32.1988112 57.613564,32.1960704 57.718351,32.1960704 C61.8105767,32.1805281 65.5996789,34.3273706 67.6775591,37.8369141 L98.4606023,81.8753166 C99.0750191,82.7137378 100.14989,83.8827142 101.656912,85.0493023 C104.201491,87.0190652 107.079009,88.2136569 110.231596,88.2136569 C113.615841,88.2136569 116.499042,86.667469 118.871346,84.1370366 C119.682736,83.2715627 120.376828,82.3486523 120.95747,81.4247094 C121.277774,80.9150287 121.505598,80.500818 121.641808,80.2241246 L162.774324,15.2544598 Z" id="Path"></path>
            </g>
        </g>
    </g>
</svg>
