<?xml version="1.0" encoding="UTF-8"?>
<svg width="319px" height="117px" viewBox="0 0 319 117" version="1.1" xmlns="http://www.w3.org/2000/svg" xmlns:xlink="http://www.w3.org/1999/xlink">
    <defs>
        <linearGradient x1="100%" y1="50%" x2="0%" y2="50%" id="linearGradient-1">
            <stop stop-color="#FF005C" offset="0%"></stop>
            <stop stop-color="#FF4C15" offset="100%"></stop>
        </linearGradient>
    </defs>
    <g id="Source" stroke="none" stroke-width="1" fill="none" fill-rule="evenodd">
        <g id="Group-6-Copy">
            <g id="Group">
                <rect id="Rectangle-Copy-33" stroke="#FFFFFF" stroke-width="2" x="16" y="15.0610422" width="142" height="86" rx="8"></rect>
                <circle id="Oval-Copy-76" stroke="#FFFFFF" stroke-width="2" cx="134" cy="37.0610422" r="10"></circle>
                <g id="Asset-2-Copy-19" transform="translate(26.000000, 52.061042)" stroke="#FFFFFF" stroke-linecap="round" stroke-width="2">
                    <path d="M0,41.9389578 L21.7670055,17.3636367 C21.7670055,17.3636367 24.5205317,14.2949106 27.2087568,14.2949106 C29.4151396,14.2864577 31.460353,15.454596 32.5815794,17.3636367 L47.4157936,38.7536055 C47.4157936,38.7536055 49.4546364,41.5562782 52.5600625,41.5562782 C55.8251134,41.5562782 57.4939171,38.0064691 57.4939171,38.0064691 L77.370821,6.35704181 C77.370821,6.35704181 80.4835027,-0.0610421836 86.7741673,-0.0610421836 C92.4299609,-0.0610421836 95.7022674,6.34246354 95.7022674,6.34246354 L116,41.9389578" id="Path"></path>
                </g>
                <path d="M151,35.6462768 L206.609443,14.0304806 C206.601027,13.9279678 206.596735,13.8242863 206.596735,13.719603 C206.596735,11.6523 208.270302,9.97568238 210.335663,9.97568238 C212.401024,9.97568238 214.074591,11.6523 214.074591,13.719603 C214.074591,15.7869059 212.401024,17.4635236 210.335663,17.4635236 C209.08618,17.4635236 207.98009,16.8498992 207.301194,15.9073724 L151,37.7920572 L151,50 C151,52.209139 149.209139,54 147,54 L120,54 C117.790861,54 116,52.209139 116,50 L116,26 C116,23.790861 117.790861,22 120,22 L147,22 C149.209139,22 151,23.790861 151,26 L151,35.6462768 Z M223,84.9389578 C221.343146,84.9389578 220,83.5958121 220,81.9389578 C220,80.2821036 221.343146,78.9389578 223,78.9389578 C224.656854,78.9389578 226,80.2821036 226,81.9389578 C226,83.5958121 224.656854,84.9389578 223,84.9389578 Z M223,82.9389578 C223.552285,82.9389578 224,82.4912426 224,81.9389578 C224,81.3866731 223.552285,80.9389578 223,80.9389578 C222.447715,80.9389578 222,81.3866731 222,81.9389578 C222,82.4912426 222.447715,82.9389578 223,82.9389578 Z M223,95.9389578 C221.343146,95.9389578 220,94.5958121 220,92.9389578 C220,91.2821036 221.343146,89.9389578 223,89.9389578 C224.656854,89.9389578 226,91.2821036 226,92.9389578 C226,94.5958121 224.656854,95.9389578 223,95.9389578 Z M223,93.9389578 C223.552285,93.9389578 224,93.4912426 224,92.9389578 C224,92.3866731 223.552285,91.9389578 223,91.9389578 C222.447715,91.9389578 222,92.3866731 222,92.9389578 C222,93.4912426 222.447715,93.9389578 223,93.9389578 Z M223,105.938958 C221.343146,105.938958 220,104.595812 220,102.938958 C220,101.282104 221.343146,99.9389578 223,99.9389578 C224.656854,99.9389578 226,101.282104 226,102.938958 C226,104.595812 224.656854,105.938958 223,105.938958 Z M223,103.938958 C223.552285,103.938958 224,103.491243 224,102.938958 C224,102.386673 223.552285,101.938958 223,101.938958 C222.447715,101.938958 222,102.386673 222,102.938958 C222,103.491243 222.447715,103.938958 223,103.938958 Z M223,116.938958 C221.343146,116.938958 220,115.595812 220,113.938958 C220,112.282104 221.343146,110.938958 223,110.938958 C224.656854,110.938958 226,112.282104 226,113.938958 C226,115.595812 224.656854,116.938958 223,116.938958 Z M223,114.938958 C223.552285,114.938958 224,114.491243 224,113.938958 C224,113.386673 223.552285,112.938958 223,112.938958 C222.447715,112.938958 222,113.386673 222,113.938958 C222,114.491243 222.447715,114.938958 223,114.938958 Z M229.175,83.4389578 C228.622715,83.4389578 228.175,82.9912426 228.175,82.4389578 C228.175,81.8866731 228.622715,81.4389578 229.175,81.4389578 L312.700586,81.4389578 C313.252871,81.4389578 313.700586,81.8866731 313.700586,82.4389578 C313.700586,82.9912426 313.252871,83.4389578 312.700586,83.4389578 L229.175,83.4389578 Z M229.174699,94.4389578 C228.622414,94.4389578 228.174699,93.9912426 228.174699,93.4389578 C228.174699,92.8866731 228.622414,92.4389578 229.174699,92.4389578 L286.875118,92.4389578 C287.427402,92.4389578 287.875118,92.8866731 287.875118,93.4389578 C287.875118,93.9912426 287.427402,94.4389578 286.875118,94.4389578 L229.174699,94.4389578 Z M229.173913,105.438958 C228.621628,105.438958 228.173913,104.991243 228.173913,104.438958 C228.173913,103.886673 228.621628,103.438958 229.173913,103.438958 L300.671875,103.438958 C301.22416,103.438958 301.671875,103.886673 301.671875,104.438958 C301.671875,104.991243 301.22416,105.438958 300.671875,105.438958 L229.173913,105.438958 Z M229.178191,115.438958 C228.625907,115.438958 228.178191,114.991243 228.178191,114.438958 C228.178191,113.886673 228.625907,113.438958 229.178191,113.438958 L295.716007,113.438958 C296.268292,113.438958 296.716007,113.886673 296.716007,114.438958 C296.716007,114.991243 296.268292,115.438958 295.716007,115.438958 L229.178191,115.438958 Z M0,10.0004541 C0,3.03788556 4.07142857,0.997597228 10.0804769,1 L19,1 L19,3.79121077 L10.0804769,3.79121077 C5.436922,3.69448817 2.87585856,5.14761812 2.71428571,9.83884667 L2.77294017,18 L0,18 L0,10.0004541 Z M224,1 L257,1 C261.418278,1 265,4.581722 265,9 L265,23 C265,27.418278 261.418278,31 257,31 L224,31 C219.581722,31 216,27.418278 216,23 L216,9 C216,4.581722 219.581722,1 224,1 Z M224,3 C220.686292,3 218,5.6862915 218,9 L218,23 C218,26.3137085 220.686292,29 224,29 L257,29 C260.313708,29 263,26.3137085 263,23 L263,9 C263,5.6862915 260.313708,3 257,3 L224,3 Z M255.5,15 C253.014719,15 251,12.9852814 251,10.5 C251,8.01471863 253.014719,6 255.5,6 C257.985281,6 260,8.01471863 260,10.5 C260,12.9852814 257.985281,15 255.5,15 Z M255.5,13 C256.880712,13 258,11.8807119 258,10.5 C258,9.11928813 256.880712,8 255.5,8 C254.119288,8 253,9.11928813 253,10.5 C253,11.8807119 254.119288,13 255.5,13 Z M228.744245,18.751593 C228.709921,18.7560778 228.583926,18.8194293 228.434966,18.9371423 C228.303754,19.0408304 228.19869,19.1470927 228.1567,19.1964406 L222.765931,25.6186053 C222.410854,26.0416172 221.780089,26.0966898 221.357077,25.7416133 C220.934065,25.3865368 220.878993,24.7557714 221.234069,24.3327595 L226.628964,17.9057117 C226.753331,17.7594583 226.945602,17.5649941 227.194945,17.3679557 C227.641637,17.0149655 228.110584,16.7830566 228.637771,16.7543326 C228.687645,16.7520552 228.687645,16.7520552 228.734419,16.7515886 C229.650246,16.7478863 230.490341,17.2541937 230.904751,18.0042829 L234.566198,23.5756684 C234.580732,23.5967509 234.641273,23.6667864 234.727151,23.7375003 C234.840734,23.8310261 234.94185,23.8756783 235.016911,23.8756783 C235.043174,23.8756783 235.098514,23.8441107 235.180889,23.7506471 C235.257309,23.6639399 235.311472,23.5722623 235.325373,23.5410608 L235.379506,23.4365709 L240.277849,15.2066351 C240.418546,14.915714 240.656658,14.5393149 241.007228,14.1599349 C241.665266,13.4478204 242.495052,13 243.490302,13 C244.430935,13 245.219213,13.4530723 245.863378,14.1665843 C246.219489,14.5610312 246.462353,14.9503625 246.581177,15.1979841 L251.608069,24.5002655 C251.870635,24.9861438 251.689604,25.5928775 251.203725,25.855443 C250.717847,26.1180085 250.111113,25.9369777 249.848548,25.4510993 L244.801405,16.109268 C244.737876,15.9780893 244.589292,15.7398953 244.378866,15.5068168 C244.078805,15.1744531 243.775283,15 243.490302,15 C243.122361,15 242.78673,15.1811337 242.476114,15.5172759 C242.267165,15.7433966 242.126163,15.9728781 242.070111,16.0948315 L242.020802,16.1886616 L237.123732,24.4164603 C237.031958,24.6067002 236.888592,24.8378611 236.681303,25.073053 C236.252678,25.5593747 235.698186,25.8756783 235.016911,25.8756783 C234.419025,25.8756783 233.898181,25.6456766 233.45584,25.2814458 C233.208165,25.0775057 233.031287,24.8728872 232.907225,24.6925025 L229.195316,19.0398618 C229.09356,18.8570466 228.923209,18.7530858 228.744245,18.751593 Z M278,0.938957816 L311,0.938957816 C315.418278,0.938957816 319,4.52067982 319,8.93895782 L319,22.9389578 C319,27.3572358 315.418278,30.9389578 311,30.9389578 L278,30.9389578 C273.581722,30.9389578 270,27.3572358 270,22.9389578 L270,8.93895782 C270,4.52067982 273.581722,0.938957816 278,0.938957816 Z M278,2.93895782 C274.686292,2.93895782 272,5.62524932 272,8.93895782 L272,22.9389578 C272,26.2526663 274.686292,28.9389578 278,28.9389578 L311,28.9389578 C314.313708,28.9389578 317,26.2526663 317,22.9389578 L317,8.93895782 C317,5.62524932 314.313708,2.93895782 311,2.93895782 L278,2.93895782 Z M309.5,14.9389578 C307.014719,14.9389578 305,12.9242392 305,10.4389578 C305,7.95367644 307.014719,5.93895782 309.5,5.93895782 C311.985281,5.93895782 314,7.95367644 314,10.4389578 C314,12.9242392 311.985281,14.9389578 309.5,14.9389578 Z M309.5,12.9389578 C310.880712,12.9389578 312,11.8196697 312,10.4389578 C312,9.05824594 310.880712,7.93895782 309.5,7.93895782 C308.119288,7.93895782 307,9.05824594 307,10.4389578 C307,11.8196697 308.119288,12.9389578 309.5,12.9389578 Z M283.744245,18.6905508 C283.709921,18.6950356 283.583926,18.7583871 283.434966,18.8761002 C283.303754,18.9797882 283.19869,19.0860505 283.1567,19.1353984 L277.765931,25.5575631 C277.410854,25.9805751 276.780089,26.0356476 276.357077,25.6805711 C275.934065,25.3254946 275.878993,24.6947292 276.234069,24.2717173 L281.628964,17.8446695 C281.753331,17.6984162 281.945602,17.5039519 282.194945,17.3069136 C282.641637,16.9539234 283.110584,16.7220145 283.637771,16.6932905 C283.687645,16.691013 283.687645,16.691013 283.734419,16.6905464 C284.650246,16.6868442 285.490341,17.1931515 285.904751,17.9432407 L289.566198,23.5146262 C289.580732,23.5357088 289.641273,23.6057442 289.727151,23.6764581 C289.840734,23.7699839 289.94185,23.8146362 290.016911,23.8146362 C290.043174,23.8146362 290.098514,23.7830685 290.180889,23.6896049 C290.257309,23.6028978 290.311472,23.5112201 290.325373,23.4800186 L290.379506,23.3755287 L295.277849,15.145593 C295.418546,14.8546718 295.656658,14.4782727 296.007228,14.0988927 C296.665266,13.3867782 297.495052,12.9389578 298.490302,12.9389578 C299.430935,12.9389578 300.219213,13.3920301 300.863378,14.1055421 C301.219489,14.499989 301.462353,14.8893204 301.581177,15.136942 L306.608069,24.4392233 C306.870635,24.9251016 306.689604,25.5318353 306.203725,25.7944008 C305.717847,26.0569663 305.111113,25.8759355 304.848548,25.3900571 L299.801405,16.0482258 C299.737876,15.9170471 299.589292,15.6788531 299.378866,15.4457746 C299.078805,15.1134109 298.775283,14.9389578 298.490302,14.9389578 C298.122361,14.9389578 297.78673,15.1200915 297.476114,15.4562337 C297.267165,15.6823544 297.126163,15.911836 297.070111,16.0337894 L297.020802,16.1276194 L292.123732,24.3554181 C292.031958,24.545658 291.888592,24.7768189 291.681303,25.0120108 C291.252678,25.4983326 290.698186,25.8146362 290.016911,25.8146362 C289.419025,25.8146362 288.898181,25.5846345 288.45584,25.2204036 C288.208165,25.0164635 288.031287,24.811845 287.907225,24.6314603 L284.195316,18.9788197 C284.09356,18.7960044 283.923209,18.6920437 283.744245,18.6905508 Z M224,37.9389578 L257,37.9389578 C261.418278,37.9389578 265,41.5206798 265,45.9389578 L265,59.9389578 C265,64.3572358 261.418278,67.9389578 257,67.9389578 L224,67.9389578 C219.581722,67.9389578 216,64.3572358 216,59.9389578 L216,45.9389578 C216,41.5206798 219.581722,37.9389578 224,37.9389578 Z M224,39.9389578 C220.686292,39.9389578 218,42.6252493 218,45.9389578 L218,59.9389578 C218,63.2526663 220.686292,65.9389578 224,65.9389578 L257,65.9389578 C260.313708,65.9389578 263,63.2526663 263,59.9389578 L263,45.9389578 C263,42.6252493 260.313708,39.9389578 257,39.9389578 L224,39.9389578 Z M255.5,51.9389578 C253.014719,51.9389578 251,49.9242392 251,47.4389578 C251,44.9536764 253.014719,42.9389578 255.5,42.9389578 C257.985281,42.9389578 260,44.9536764 260,47.4389578 C260,49.9242392 257.985281,51.9389578 255.5,51.9389578 Z M255.5,49.9389578 C256.880712,49.9389578 258,48.8196697 258,47.4389578 C258,46.0582459 256.880712,44.9389578 255.5,44.9389578 C254.119288,44.9389578 253,46.0582459 253,47.4389578 C253,48.8196697 254.119288,49.9389578 255.5,49.9389578 Z M228.744245,55.6905508 C228.709921,55.6950356 228.583926,55.7583871 228.434966,55.8761002 C228.303754,55.9797882 228.19869,56.0860505 228.1567,56.1353984 L222.765931,62.5575631 C222.410854,62.9805751 221.780089,63.0356476 221.357077,62.6805711 C220.934065,62.3254946 220.878993,61.6947292 221.234069,61.2717173 L226.628964,54.8446695 C226.753331,54.6984162 226.945602,54.5039519 227.194945,54.3069136 C227.641637,53.9539234 228.110584,53.7220145 228.637771,53.6932905 C228.687645,53.691013 228.687645,53.691013 228.734419,53.6905464 C229.650246,53.6868442 230.490341,54.1931515 230.904751,54.9432407 L234.566198,60.5146262 C234.580732,60.5357088 234.641273,60.6057442 234.727151,60.6764581 C234.840734,60.7699839 234.94185,60.8146362 235.016911,60.8146362 C235.043174,60.8146362 235.098514,60.7830685 235.180889,60.6896049 C235.257309,60.6028978 235.311472,60.5112201 235.325373,60.4800186 L235.379506,60.3755287 L240.277849,52.145593 C240.418546,51.8546718 240.656658,51.4782727 241.007228,51.0988927 C241.665266,50.3867782 242.495052,49.9389578 243.490302,49.9389578 C244.430935,49.9389578 245.219213,50.3920301 245.863378,51.1055421 C246.219489,51.499989 246.462353,51.8893204 246.581177,52.136942 L251.608069,61.4392233 C251.870635,61.9251016 251.689604,62.5318353 251.203725,62.7944008 C250.717847,63.0569663 250.111113,62.8759355 249.848548,62.3900571 L244.801405,53.0482258 C244.737876,52.9170471 244.589292,52.6788531 244.378866,52.4457746 C244.078805,52.1134109 243.775283,51.9389578 243.490302,51.9389578 C243.122361,51.9389578 242.78673,52.1200915 242.476114,52.4562337 C242.267165,52.6823544 242.126163,52.911836 242.070111,53.0337894 L242.020802,53.1276194 L237.123732,61.3554181 C237.031958,61.545658 236.888592,61.7768189 236.681303,62.0120108 C236.252678,62.4983326 235.698186,62.8146362 235.016911,62.8146362 C234.419025,62.8146362 233.898181,62.5846345 233.45584,62.2204036 C233.208165,62.0164635 233.031287,61.811845 232.907225,61.6314603 L229.195316,55.9788197 C229.09356,55.7960044 228.923209,55.6920437 228.744245,55.6905508 Z M278,37.9389578 L311,37.9389578 C315.418278,37.9389578 319,41.5206798 319,45.9389578 L319,59.9389578 C319,64.3572358 315.418278,67.9389578 311,67.9389578 L278,67.9389578 C273.581722,67.9389578 270,64.3572358 270,59.9389578 L270,45.9389578 C270,41.5206798 273.581722,37.9389578 278,37.9389578 Z M278,39.9389578 C274.686292,39.9389578 272,42.6252493 272,45.9389578 L272,59.9389578 C272,63.2526663 274.686292,65.9389578 278,65.9389578 L311,65.9389578 C314.313708,65.9389578 317,63.2526663 317,59.9389578 L317,45.9389578 C317,42.6252493 314.313708,39.9389578 311,39.9389578 L278,39.9389578 Z M309.5,51.9389578 C307.014719,51.9389578 305,49.9242392 305,47.4389578 C305,44.9536764 307.014719,42.9389578 309.5,42.9389578 C311.985281,42.9389578 314,44.9536764 314,47.4389578 C314,49.9242392 311.985281,51.9389578 309.5,51.9389578 Z M309.5,49.9389578 C310.880712,49.9389578 312,48.8196697 312,47.4389578 C312,46.0582459 310.880712,44.9389578 309.5,44.9389578 C308.119288,44.9389578 307,46.0582459 307,47.4389578 C307,48.8196697 308.119288,49.9389578 309.5,49.9389578 Z M283.744245,55.6905508 C283.709921,55.6950356 283.583926,55.7583871 283.434966,55.8761002 C283.303754,55.9797882 283.19869,56.0860505 283.1567,56.1353984 L277.765931,62.5575631 C277.410854,62.9805751 276.780089,63.0356476 276.357077,62.6805711 C275.934065,62.3254946 275.878993,61.6947292 276.234069,61.2717173 L281.628964,54.8446695 C281.753331,54.6984162 281.945602,54.5039519 282.194945,54.3069136 C282.641637,53.9539234 283.110584,53.7220145 283.637771,53.6932905 C283.687645,53.691013 283.687645,53.691013 283.734419,53.6905464 C284.650246,53.6868442 285.490341,54.1931515 285.904751,54.9432407 L289.566198,60.5146262 C289.580732,60.5357088 289.641273,60.6057442 289.727151,60.6764581 C289.840734,60.7699839 289.94185,60.8146362 290.016911,60.8146362 C290.043174,60.8146362 290.098514,60.7830685 290.180889,60.6896049 C290.257309,60.6028978 290.311472,60.5112201 290.325373,60.4800186 L290.379506,60.3755287 L295.277849,52.145593 C295.418546,51.8546718 295.656658,51.4782727 296.007228,51.0988927 C296.665266,50.3867782 297.495052,49.9389578 298.490302,49.9389578 C299.430935,49.9389578 300.219213,50.3920301 300.863378,51.1055421 C301.219489,51.499989 301.462353,51.8893204 301.581177,52.136942 L306.608069,61.4392233 C306.870635,61.9251016 306.689604,62.5318353 306.203725,62.7944008 C305.717847,63.0569663 305.111113,62.8759355 304.848548,62.3900571 L299.801405,53.0482258 C299.737876,52.9170471 299.589292,52.6788531 299.378866,52.4457746 C299.078805,52.1134109 298.775283,51.9389578 298.490302,51.9389578 C298.122361,51.9389578 297.78673,52.1200915 297.476114,52.4562337 C297.267165,52.6823544 297.126163,52.911836 297.070111,53.0337894 L297.020802,53.1276194 L292.123732,61.3554181 C292.031958,61.545658 291.888592,61.7768189 291.681303,62.0120108 C291.252678,62.4983326 290.698186,62.8146362 290.016911,62.8146362 C289.419025,62.8146362 288.898181,62.5846345 288.45584,62.2204036 C288.208165,62.0164635 288.031287,61.811845 287.907225,61.6314603 L284.195316,55.9788197 C284.09356,55.7960044 283.923209,55.6920437 283.744245,55.6905508 Z M173,10.0004541 L173,18 L170.22706,18 L170.285714,9.83884667 C170.124141,5.14761812 167.563078,3.69448817 162.919523,3.79121077 L154,3.79121077 L154,1 L162.919523,1 C168.928571,0.997597228 173,3.03788556 173,10.0004541 Z M0,107.999544 L0,100 L2.77294017,100 L2.71428571,108.161151 C2.87585856,112.852379 5.436922,114.305508 10.0804769,114.208786 L19,114.208786 L19,117 L10.0804769,117 C4.07142857,117.002399 0,114.962111 0,107.999544 Z M173,107.999546 C173,114.962114 168.928571,117.002403 162.919523,117 L154,117 L154,114.208789 L162.919523,114.208789 C167.563078,114.305512 170.124141,112.852382 170.285714,108.161153 L170.22706,100 L173,100 L173,107.999546 Z M120,24 C118.895431,24 118,24.8954305 118,26 L118,50 C118,51.1045695 118.895431,52 120,52 L147,52 C148.104569,52 149,51.1045695 149,50 L149,26 C149,24.8954305 148.104569,24 147,24 L120,24 Z M210.335663,15.4635236 C211.295638,15.4635236 212.074591,14.683151 212.074591,13.719603 C212.074591,12.7560549 211.295638,11.9756824 210.335663,11.9756824 C209.375688,11.9756824 208.596735,12.7560549 208.596735,13.719603 C208.596735,14.683151 209.375688,15.4635236 210.335663,15.4635236 Z" id="Combined-Shape" fill="url(#linearGradient-1)" fill-rule="nonzero"></path>
            </g>
        </g>
    </g>
</svg>
