<?xml version="1.0" encoding="UTF-8"?>
<svg width="86px" height="52px" viewBox="0 0 86 52" version="1.1" xmlns="http://www.w3.org/2000/svg" xmlns:xlink="http://www.w3.org/1999/xlink">
    <defs>
        <linearGradient x1="101.319357%" y1="50.1895649%" x2="-0.903668896%" y2="50.1895649%" id="linearGradient-1">
            <stop stop-color="#F4229A" offset="0%"></stop>
            <stop stop-color="#FF3C00" offset="100%"></stop>
        </linearGradient>
    </defs>
    <g id="Material-Design-Symbols" stroke="none" stroke-width="1" fill="none" fill-rule="evenodd">
        <g id="navigation" transform="translate(-33.000000, -10.000000)" fill="url(#linearGradient-1)" fill-rule="nonzero">
            <path d="M86.6880783,29.7241578 C91.3347841,31.2874168 94.6814583,35.6755816 94.6814579,40.844279 C94.6840319,43.4721279 93.80012,46.0142524 92.187758,48.0672941 L103.491565,59.6410105 L101.668393,61.4116195 L100.971639,60.6992054 L95.2395062,54.8381743 L94.8680384,54.4511403 L90.4020452,49.8867824 C87.2821653,52.4679295 83.0205485,53.2718967 79.1413873,51.9514121 C75.2622972,50.6309517 72.3787069,47.3947959 71.4854843,43.4476162 L71.4423157,43.4536533 L71.349283,42.7473706 C71.3337291,42.6520212 71.3193241,42.5563127 71.3060813,42.4602609 L71.1684218,41.461803 L71.2020162,41.4574404 C71.191511,41.2889555 71.1886792,41.1063648 71.1886792,40.8560499 C71.1886792,40.7156211 71.1934082,40.6390553 71.2132947,40.3832946 C71.2268011,40.209588 71.2318917,40.1153021 71.2318917,40.0089247 L71.2371102,39.9068958 C71.2712459,39.5744338 71.2887469,39.4229228 71.317129,39.2392846 C71.3672513,38.880464 71.3670976,38.8815377 71.3903127,38.73933 C71.4103788,38.6164117 71.4310733,38.5038981 71.4547428,38.3928321 C72.6326561,32.9952038 77.4037281,29.1383747 82.9377696,29.1132075 C83.3644432,29.1132075 83.785804,29.1359399 84.2007043,29.1802583 L85.3072075,24.1407969 C84.074358,23.3837454 83.4026386,21.9080741 83.7192927,20.426071 C84.1049737,18.6210084 85.8244547,17.4263097 87.6474486,17.6989757 C89.4697993,17.9715455 90.7660565,19.616309 90.6099563,21.4549527 C90.4755531,23.0380351 89.3041896,24.297133 87.819416,24.5912986 L86.6880783,29.7241578 Z M35.5349333,15.5557744 L35.5349324,45.4564101 C35.5371422,47.1258377 36.8853465,48.4784647 38.546933,48.4828945 L68.4333307,48.4828945 L68.4333307,51.0188679 L67.4333307,51.0188679 L38.5457556,51.0188679 C35.4814299,51.0152594 33,48.5260787 33,45.4577338 L33,15.5546023 C33.0035942,12.4888076 35.4839753,10.0036034 38.546933,10 L93.3983521,10 C96.4524818,10.0143926 98.9209747,12.4964456 98.9245283,15.5557744 L98.9245283,27.3985175 L96.389595,27.3985175 L96.389595,26.3985175 L96.3895985,15.5584068 C96.3852204,13.8952462 95.0449643,12.546991 93.3936433,12.5359735 L38.5495942,12.5359699 C36.8869092,12.5403947 35.5393511,13.8905731 35.5349333,15.5557744 Z M110.27503,26.0415094 C110.275027,23.62164 112.182522,21.6454628 114.555196,21.6415108 L115.556862,21.7763835 C117.124531,22.1580019 118.382156,23.4278499 118.745241,25.0920356 C119.181177,27.0901252 118.214851,29.138297 116.405834,30.0211187 C114.879535,30.7659702 113.104995,30.5097572 111.846318,29.4465706 L97.1365979,39.8218206 L95.7188363,37.7121983 L110.458636,27.3232767 C110.335622,26.908511 110.273279,26.4762431 110.27503,26.0415094 Z M59.308031,34.9514673 C59.9314926,33.4558559 61.395628,32.4841957 63.0158324,32.4905047 C64.072266,32.4911607 65.0853149,32.9111108 65.8323851,33.658181 C66.5799844,34.4057802 67.0000707,35.4197352 66.9999899,36.472489 C67.0072677,38.0935855 66.0354008,39.5587855 64.5390988,40.182535 C63.0427848,40.8062895 61.3179516,40.4652222 60.1716477,39.3189183 C59.0253438,38.1726145 58.6842765,36.4477813 59.308031,34.9514673 Z M114.556862,27.894003 C115.01588,27.894003 115.4583,27.7044541 115.787979,27.3634542 C116.12404,27.0158533 116.314659,26.5398569 116.314659,26.0415081 C116.314659,25.0109898 115.519971,24.1890132 114.556862,24.1890132 C113.593753,24.1890132 112.799064,25.0109898 112.799064,26.0415081 C112.799064,27.0720264 113.593753,27.894003 114.556862,27.894003 Z M86.7294453,22.6004588 L86.9249003,22.6556018 L87.0016513,22.6556018 L87.0997049,22.6558423 C87.8853715,22.6730769 88.5502111,22.0739206 88.6171255,21.285762 C88.6840716,20.4972295 88.1292908,19.7932926 87.3515987,19.6769729 C86.5745499,19.5607493 85.8403269,20.0708889 85.6751454,20.8439708 C85.5097737,21.6179424 85.972134,22.3868017 86.7294453,22.6004588 Z M64.4181715,35.0723945 C64.0456357,34.6998587 63.5403847,34.490566 63.0090983,34.490556 C62.1985377,34.486917 61.4659314,34.9728546 61.1540577,35.7210032 C60.8421838,36.469152 61.0127156,37.3315591 61.5858613,37.9047048 C62.1590069,38.4778504 63.021414,38.6483822 63.7695628,38.3365084 C64.5177114,38.0246346 65.003649,37.2920284 65,36.4769784 C65,35.9501813 64.7907074,35.4449304 64.4181715,35.0723945 Z M83.4683924,50.0262963 C88.250416,49.7686871 92.0417651,45.9031762 92.2017602,41.123051 C92.3617536,36.3429785 88.8374233,32.2332218 84.0833684,31.6571281 C79.3556002,31.0842199 74.9720418,34.1950861 73.9487111,38.8421107 L73.830004,39.5931079 C73.8241083,39.6304069 73.8197672,39.6679058 73.814708,39.7240866 L73.8105914,39.7713976 C73.7940482,39.9654814 73.7840122,40.0578323 73.758412,40.2112671 C73.7460618,40.285288 73.7378658,40.375346 73.7334353,40.4859879 C73.7296557,40.5803748 73.7288345,40.6615864 73.7288345,40.8452585 C73.7288345,40.9151365 73.731499,41.0011724 73.7366184,41.1006006 C73.7408113,41.1820337 73.7464696,41.2694898 73.7536998,41.3677961 C73.7616048,41.4725171 73.7616048,41.4725171 73.7689384,41.5650351 C73.7844647,41.7614889 73.8037112,41.9299955 73.8293452,42.0879007 L73.9251962,42.6783418 C74.8387334,47.1187663 78.8788825,50.2735348 83.4683924,50.0262963 Z" id="Combined-Shape"></path>
        </g>
    </g>
</svg>
