<?xml version="1.0" encoding="UTF-8"?>
<svg width="76px" height="20px" viewBox="0 0 76 20" version="1.1" xmlns="http://www.w3.org/2000/svg" xmlns:xlink="http://www.w3.org/1999/xlink">
    <defs>
        <linearGradient x1="0%" y1="50%" x2="100%" y2="50%" id="linearGradient-1">
            <stop stop-color="#FF4C15" offset="0%"></stop>
            <stop stop-color="#FF005C" offset="100%"></stop>
        </linearGradient>
    </defs>
    <g id="Material-Design-Symbols" stroke="none" stroke-width="1" fill="none" fill-rule="evenodd">
        <g id="navigation" transform="translate(-314.000000, -28.000000)" fill-rule="nonzero">
            <g id="organisation-logo_svg" transform="translate(314.000000, 28.000000)">
                <path d="M6.59069202,8.4201065 C4.88453657,8.04823051 3.88943682,7.78609458 3.60898587,7.63313498 C3.32721114,7.487316 3.18670199,7.25148763 3.18670199,6.9264015 C3.18670199,6.66746007 3.31832294,6.4419668 3.58421238,6.24917006 C3.84821072,6.05674914 4.2920532,5.96016286 4.91517248,5.96016286 C5.67199293,5.96016286 6.20736492,6.15371124 6.52336866,6.53780144 C6.69073151,6.75070467 6.7945532,7.03933605 6.83445552,7.40463514 L9.69115958,7.40463514 C9.56332083,6.07629189 9.06993142,5.14293768 8.20928927,4.60100219 C7.34864713,4.06019418 6.23554239,3.78941434 4.87035328,3.78941434 C3.43084372,3.78941434 2.314335,4.15001566 1.52101621,4.87046664 C0.727508312,5.59091763 0.330754364,6.452114 0.330754364,7.45443157 C0.330754364,8.30435328 0.584729842,8.9545255 1.09230257,9.40626367 C1.59987531,9.864015 2.47470075,10.2458503 3.71564423,10.5510178 C5.43976517,10.9567178 6.43599958,11.241591 6.70378013,11.4071406 C6.97118246,11.5738177 7.10582917,11.8156592 7.10582917,12.1339806 C7.10582917,12.4665832 6.93827722,12.7155653 6.60695552,12.8814907 C6.27449917,13.0476042 5.82668537,13.1304729 5.26237947,13.1304729 C4.30207606,13.1304729 3.64416043,12.9408707 3.28825437,12.5622299 C3.08704073,12.3504541 2.95636533,11.9919198 2.89622818,11.4868149 L0,11.4868149 C0,12.6024428 0.410369908,13.5202004 1.22978595,14.2400877 C2.05033666,14.9603507 3.32021405,15.3207642 5.04130922,15.3207642 C6.72855362,15.3207642 7.97460307,14.9808331 8.78172692,14.2998434 C9.58866167,13.6199813 9.99127808,12.7418728 9.99127808,11.6664579 C9.99127808,10.8497964 9.71120533,10.1689947 9.14897967,9.62499217 C8.58183708,9.08700283 7.72838113,8.68562483 6.59069202,8.4201065" id="Fill-1" fill="#FFFFFF"></path>
                <path d="M14.8536887,1.17087378 L12.0281878,1.17087378 L12.0281878,4.19793297 L10.5049023,4.19793297 L10.5049023,6.2192922 L12.0281878,6.2192922 L12.0281878,12.9012214 C12.0281878,13.5784528 12.1877972,14.0792358 12.509096,14.4043219 C13.0043766,14.9160038 13.9262905,15.1482618 15.275027,15.1020357 L16.6284912,15.0524272 L16.6284912,12.9309113 C16.5335577,12.9373003 16.4399481,12.9427498 16.3427452,12.9455684 C16.2453532,12.9493267 16.1534456,12.9510178 16.0672112,12.9510178 C15.4866417,12.9510178 15.138111,12.8963358 15.0244555,12.7862198 C14.910611,12.6776073 14.8536887,12.3998748 14.8536887,11.9547134 L14.8536887,6.2192922 L16.6284912,6.2192922 L16.6284912,4.19793297 L14.8536887,4.19793297 L14.8536887,1.17087378" id="Fill-2" fill="#FFFFFF"></path>
                <path d="M24.8884622,12.0565612 C24.4415939,12.6452866 23.7989962,12.9412465 22.9636949,12.9412465 C22.1295282,12.9412465 21.4857959,12.6452866 21.0355237,12.0565612 C20.5839277,11.4663326 20.358697,10.6273098 20.358697,9.54043217 C20.358697,8.45355467 20.5839277,7.61678673 21.0355237,7.02994049 C21.4857959,6.44347009 22.1295282,6.14938929 22.9636949,6.14938929 C23.7989962,6.14938929 24.4415939,6.44347009 24.8884622,7.02994049 C25.3364651,7.61678673 25.560372,8.45355467 25.560372,9.54043217 C25.560372,10.6273098 25.3364651,11.4663326 24.8884622,12.0565612 M22.9748524,3.74976511 C21.0967955,3.74976511 19.6971882,4.32364548 18.7752743,5.47103038 C17.8533603,6.61860319 17.3923088,7.9751331 17.3923088,9.54043217 C17.3923088,11.1320388 17.8533603,12.4936423 18.7752743,13.6241153 C19.6971882,14.7555278 21.0967955,15.3205763 22.9748524,15.3205763 C24.8519638,15.3205763 26.251382,14.7555278 27.1732959,13.6241153 C28.0952099,12.4936423 28.5562614,11.1320388 28.5562614,9.54043217 C28.5562614,7.9751331 28.0952099,6.61860319 27.1732959,5.47103038 C26.251382,4.32364548 24.8519638,3.74976511 22.9748524,3.74976511" id="Fill-3" fill="#FFFFFF"></path>
                <path d="M48.4416147,4.85524585 L48.4416147,6.23000313 L50.0460287,6.23000313 L50.0460287,14.983088 L52.8804177,14.983088 L52.8804177,6.23000313 L54.7550707,6.23000313 L54.7550707,4.22856248 L52.8804177,4.22856248 L52.8804177,3.31249608 C52.8804177,3.1003445 52.9532252,2.90585656 53.0971384,2.72997182 C53.2410515,2.55446289 53.501835,2.47121829 53.8789214,2.48117758 C54.256197,2.49076104 54.5249231,2.50579393 54.685478,2.5257125 L54.685478,0.215721892 C54.4320698,0.196179142 54.2312344,0.180958347 54.0829717,0.170999061 C53.9367892,0.161227686 53.7739651,0.155778265 53.5935536,0.155778265 C52.01032,0.155778265 51.0104925,0.481428124 50.5965295,1.13160037 C50.2016667,1.56999687 50.0057482,2.37049797 50.0057482,3.53160037 L50.0057482,4.22856248 L48.4416147,4.22856248" id="Fill-4" fill="#FFFFFF"></path>
                <path d="M62.5545573,10.0258064 C62.5545573,10.7229565 62.4613258,11.2842468 62.2750519,11.7089258 C61.9155527,12.4921391 61.2517747,12.8841215 60.2803138,12.8841215 C59.5234933,12.8841215 59.0151642,12.6086439 58.7545698,12.0575008 C58.6085765,11.7450047 58.5353907,11.2804886 58.5353907,10.6633887 L58.5353907,4.12070153 L55.6090939,4.12070153 L55.6090939,10.6633887 C55.6090939,11.9041653 55.7658666,12.8439086 56.079601,13.4814908 C56.6384227,14.63658 57.7242955,15.213467 59.3370303,15.213467 C59.8971758,15.213467 60.3839464,15.1401817 60.8013134,14.9945506 C61.2162219,14.8487316 61.649096,14.5764485 62.0944513,14.1780771 C62.2421467,14.0519888 62.3680943,13.9065456 62.4741853,13.7396806 C62.5814111,13.5741309 62.6475997,13.4745381 62.6746426,13.440902 L62.6746426,14.974632 L65.4500291,14.974632 L65.4500291,4.12070153 L62.5545573,4.12070153 L62.5545573,10.0258064" id="Fill-5" fill="#FFFFFF"></path>
                <polygon id="Fill-6" fill="#FFFFFF" points="67.0618183 14.9750078 69.9183333 14.9750078 69.9183333 0.297087378 67.0618183 0.297087378"></polygon>
                <path d="M36.3733354,3.89013456 C36.2462531,3.88374558 36.1643683,3.87867199 36.1278699,3.87528959 C36.0906151,3.87228301 36.0465524,3.87059181 35.9920885,3.87059181 C35.1367415,3.87059181 34.443084,4.09289059 33.907712,4.53748815 C33.5805507,4.80319438 33.1968454,5.29796419 32.7558396,6.02142175 L32.7558396,4.1287816 L30.0301891,4.1287816 L30.0301891,14.9830879 L32.9063716,14.9830879 L32.9063716,9.79542739 C32.9063716,8.92558712 33.016623,8.28142802 33.2371259,7.86332592 C33.6300977,7.1203256 34.4029925,6.74826172 35.5518392,6.74826172 C35.6378845,6.74826172 35.7528637,6.75126829 35.8920491,6.75803309 C36.03218,6.76442207 36.1925457,6.77757584 36.3733354,6.79805814 L36.3733354,3.89013456" id="Fill-7" fill="#FFFFFF"></path>
                <path d="M36.9896467,4.12821787 L40.0362178,4.12821787 L42.4212802,12.1157531 L44.6508936,4.19642958 L47.6783645,4.20901962 L47.4567269,4.83570299 L43.9680154,14.7844659 C43.2441002,16.8422799 42.6710952,18.1185717 42.2505133,18.6127778 C41.8280403,19.1073597 40.9864983,19.3548386 39.7215378,19.3548386 C39.4679406,19.3548386 39.2640794,19.3529595 39.1093869,19.3501408 C38.9550728,19.3465705 38.7253034,19.3351079 38.4174314,19.3151893 L38.4174314,17.044848 L38.7782543,17.0649545 C39.0588944,17.0779203 39.3262968,17.0675852 39.5800832,17.0347008 C39.8331131,17.0010647 40.0466188,16.9255245 40.2200332,16.8054493 C40.3887198,16.6928906 40.5430341,16.4570622 40.6880819,16.0990917 C40.8297257,15.7403694 40.8921322,15.521641 40.873032,15.4415908 L36.9896467,4.12821787" id="Fill-9" fill="#FFFFFF"></path>
                <path d="M75.6533001,13.2757282 C75.6533001,14.4606953 74.6865669,15.4212966 73.4942248,15.4212966 C72.3015046,15.4212966 71.3349605,14.4606953 71.3349605,13.2757282 C71.3349605,12.090761 72.3015046,11.1303477 73.4942248,11.1303477 C74.6865669,11.1303477 75.6533001,12.090761 75.6533001,13.2757282" id="Fill-11" fill="url(#linearGradient-1)"></path>
            </g>
        </g>
    </g>
</svg>
